<?xml version="1.0" encoding="UTF-8" standalone="no"?>
<!DOCTYPE svg PUBLIC "-//W3C//DTD SVG 1.1//EN"
 "http://www.w3.org/Graphics/SVG/1.1/DTD/svg11.dtd">
<!-- Generated by graphviz version 2.40.1 (20161225.0304)
 -->
<!-- Title: dependencies Pages: 1 -->
<svg width="504pt" height="211pt"
 viewBox="0.00 0.00 504.00 211.00" xmlns="http://www.w3.org/2000/svg" xmlns:xlink="http://www.w3.org/1999/xlink">
<g id="graph0" class="graph" transform="scale(1 1) rotate(0) translate(4 207)">
<title>dependencies</title>
<polygon fill="#ffffff" stroke="transparent" points="-4,4 -4,-207 500,-207 500,4 -4,4"/>
<text text-anchor="start" x="227.0091" y="-42.4" font-family="sans-serif" font-weight="bold" font-size="14.00" fill="#000000">Legend</text>
<polygon fill="#ffffb3" stroke="transparent" points="14,-10 14,-30 34,-30 34,-10 14,-10"/>
<text text-anchor="start" x="37.629" y="-15.4" font-family="sans-serif" font-size="14.00" fill="#000000"> &#160;Declarations</text>
<polygon fill="#8dd3c7" stroke="transparent" points="127,-10 127,-30 147,-30 147,-10 127,-10"/>
<text text-anchor="start" x="150.7251" y="-15.4" font-family="sans-serif" font-size="14.00" fill="#000000"> &#160;Module</text>
<polygon fill="#80b1d3" stroke="transparent" points="213,-10 213,-30 233,-30 233,-10 213,-10"/>
<text text-anchor="start" x="236.7812" y="-15.4" font-family="sans-serif" font-size="14.00" fill="#000000"> &#160;Bootstrap</text>
<polygon fill="#fdb462" stroke="transparent" points="310,-10 310,-30 330,-30 330,-10 310,-10"/>
<text text-anchor="start" x="333.6732" y="-15.4" font-family="sans-serif" font-size="14.00" fill="#000000"> &#160;Providers</text>
<polygon fill="#fb8072" stroke="transparent" points="406,-10 406,-30 426,-30 426,-10 406,-10"/>
<text text-anchor="start" x="429.7258" y="-15.4" font-family="sans-serif" font-size="14.00" fill="#000000"> &#160;Exports</text>
<g id="clust1" class="cluster">
<title>cluster_TrajetDetailPageModule</title>
<polygon fill="none" stroke="#000000" stroke-dasharray="1,5" points="31,-70 31,-195 465,-195 465,-70 31,-70"/>
</g>
<g id="clust2" class="cluster">
<title>cluster_TrajetDetailPageModule_declarations</title>
<polygon fill="none" stroke="#000000" points="39,-78 39,-130 457,-130 457,-78 39,-78"/>
</g>
<!-- ModalComplaintPage -->
<g id="node1" class="node">
<title>ModalComplaintPage</title>
<polygon fill="#ffffb3" stroke="#000000" points="449.3753,-122 310.6247,-122 310.6247,-86 449.3753,-86 449.3753,-122"/>
<text text-anchor="middle" x="380" y="-99.8" font-family="Times,serif" font-size="14.00" fill="#000000">ModalComplaintPage</text>
</g>
<!-- TrajetDetailPageModule -->
<g id="node4" class="node">
<title>TrajetDetailPageModule</title>
<polygon fill="#8dd3c7" stroke="#000000" points="311.3933,-187 308.3933,-191 287.3933,-191 284.3933,-187 156.6067,-187 156.6067,-151 311.3933,-151 311.3933,-187"/>
<text text-anchor="middle" x="234" y="-164.8" font-family="Times,serif" font-size="14.00" fill="#000000">TrajetDetailPageModule</text>
</g>
<!-- ModalComplaintPage&#45;&gt;TrajetDetailPageModule -->
<g id="edge1" class="edge">
<title>ModalComplaintPage&#45;&gt;TrajetDetailPageModule</title>
<path fill="none" stroke="#000000" d="M310.5534,-104C305.0451,-104 301.5547,-104 301.5547,-104 301.5547,-104 301.5547,-140.8939 301.5547,-140.8939"/>
<polygon fill="#000000" stroke="#000000" points="298.0548,-140.8938 301.5547,-150.8939 305.0548,-140.8939 298.0548,-140.8938"/>
</g>
<!-- ModalRatingPage -->
<g id="node2" class="node">
<title>ModalRatingPage</title>
<polygon fill="#ffffb3" stroke="#000000" points="292.594,-122 175.406,-122 175.406,-86 292.594,-86 292.594,-122"/>
<text text-anchor="middle" x="234" y="-99.8" font-family="Times,serif" font-size="14.00" fill="#000000">ModalRatingPage</text>
</g>
<!-- ModalRatingPage&#45;&gt;TrajetDetailPageModule -->
<g id="edge2" class="edge">
<title>ModalRatingPage&#45;&gt;TrajetDetailPageModule</title>
<path fill="none" stroke="#000000" d="M234,-122.1061C234,-122.1061 234,-140.991 234,-140.991"/>
<polygon fill="#000000" stroke="#000000" points="230.5001,-140.9909 234,-150.991 237.5001,-140.991 230.5001,-140.9909"/>
</g>
<!-- TrajetDetailPage -->
<g id="node3" class="node">
<title>TrajetDetailPage</title>
<polygon fill="#ffffb3" stroke="#000000" points="157.3431,-122 46.6569,-122 46.6569,-86 157.3431,-86 157.3431,-122"/>
<text text-anchor="middle" x="102" y="-99.8" font-family="Times,serif" font-size="14.00" fill="#000000">TrajetDetailPage</text>
</g>
<!-- TrajetDetailPage&#45;&gt;TrajetDetailPageModule -->
<g id="edge3" class="edge">
<title>TrajetDetailPage&#45;&gt;TrajetDetailPageModule</title>
<path fill="none" stroke="#000000" d="M157.4775,-104C162.8976,-104 166.4373,-104 166.4373,-104 166.4373,-104 166.4373,-140.8939 166.4373,-140.8939"/>
<polygon fill="#000000" stroke="#000000" points="162.9373,-140.8938 166.4373,-150.8939 169.9373,-140.8939 162.9373,-140.8938"/>
</g>
</g>
</svg>
